<svg xmlns="http://www.w3.org/2000/svg" viewBox="0 0 540 1080" width="540" height="1080" font-family="'Apple SD Gothic Neo','Malgun Gothic','Noto Sans KR',sans-serif">
<rect width="540" height="1080" fill="#ffffff"/><text x="30" y="40" font-size="20" font-weight="700" fill="#14213f" font-family="'Apple SD Gothic Neo','Malgun Gothic','Noto Sans KR',sans-serif">9:41</text><g fill="#14213f"><rect x="452" y="27" width="22" height="13" rx="3"/><circle cx="492" cy="34" r="7"/><rect x="418" y="27" width="24" height="13" rx="2" opacity="0.5"/></g><path d="M40 70 L30 79 L40 88" fill="none" stroke="#14213f" stroke-width="3" stroke-linecap="round" stroke-linejoin="round"/><rect x="30" y="96" width="430" height="40" rx="20" fill="#e7edff" stroke="none" stroke-width="1"/><text x="50" y="122" font-size="18" font-weight="700" fill="#1B59FA" text-anchor="start" letter-spacing="0">CARE BRIDGE 제휴 회원 전용 의료복지 플랫폼</text><text x="30" y="182" font-size="30" font-weight="800" fill="#14213f" text-anchor="start" letter-spacing="0">똑같은 시술도</text><text x="30" y="224" font-size="30" font-weight="800" fill="#1B59FA" text-anchor="start" letter-spacing="0">직장인·대학생은 </text><text x="285" y="224" font-size="30" font-weight="800" fill="#1B59FA" text-anchor="start" letter-spacing="0">이 가격</text><text x="370" y="224" font-size="30" font-weight="800" fill="#14213f" text-anchor="start" letter-spacing="0">에 받아요</text><rect x="30" y="260" width="480" height="320" rx="16" fill="#fff" stroke="#e6eaf1" stroke-width="2"/><rect x="327.6" y="260" width="182.4" height="60" rx="0" fill="#2b62f6" stroke="none" stroke-width="1"/><text x="126.0" y="298" font-size="20" font-weight="700" fill="#8a93a6" text-anchor="middle" letter-spacing="0">시술</text><text x="241.2" y="298" font-size="20" font-weight="700" fill="#8a93a6" text-anchor="middle" letter-spacing="0">일반가</text><text x="418.8" y="298" font-size="20" font-weight="800" fill="#fff" text-anchor="middle" letter-spacing="0">제휴 회원가</text><line x1="30" y1="320" x2="510" y2="320" stroke="#eef1f6"/><text x="126.0" y="364" font-size="21" font-weight="700" fill="#14213f" text-anchor="middle" letter-spacing="0">스마일라식</text><text x="241.2" y="364" font-size="19" fill="#8a93a6" text-anchor="middle" text-decoration="line-through">319만 원</text><rect x="366.0" y="336" width="54" height="22" rx="11" fill="#2b62f6" stroke="none" stroke-width="1"/><text x="393.0" y="351" font-size="15" font-weight="800" fill="#fff" text-anchor="middle" letter-spacing="0">-47%</text><text x="418.8" y="376" font-size="22" font-weight="800" fill="#14213f" text-anchor="middle" letter-spacing="0">169만 원~</text><line x1="30" y1="392" x2="510" y2="392" stroke="#eef1f6"/><text x="126.0" y="436" font-size="21" font-weight="700" fill="#14213f" text-anchor="middle" letter-spacing="0">임플란트</text><text x="241.2" y="436" font-size="19" fill="#8a93a6" text-anchor="middle" text-decoration="line-through">45만 원</text><rect x="366.0" y="408" width="54" height="22" rx="11" fill="#2b62f6" stroke="none" stroke-width="1"/><text x="393.0" y="423" font-size="15" font-weight="800" fill="#fff" text-anchor="middle" letter-spacing="0">-44%</text><text x="418.8" y="448" font-size="22" font-weight="800" fill="#14213f" text-anchor="middle" letter-spacing="0">25만 원~</text><line x1="30" y1="464" x2="510" y2="464" stroke="#eef1f6"/><text x="126.0" y="508" font-size="21" font-weight="700" fill="#14213f" text-anchor="middle" letter-spacing="0">리쥬란힐러</text><text x="241.2" y="508" font-size="19" fill="#8a93a6" text-anchor="middle" text-decoration="line-through">13만 원</text><rect x="366.0" y="480" width="54" height="22" rx="11" fill="#2b62f6" stroke="none" stroke-width="1"/><text x="393.0" y="495" font-size="15" font-weight="800" fill="#fff" text-anchor="middle" letter-spacing="0">-29%</text><text x="418.8" y="520" font-size="22" font-weight="800" fill="#14213f" text-anchor="middle" letter-spacing="0">9만 원~</text><rect x="30" y="536" width="480" height="44" rx="0" fill="#20264a" stroke="none" stroke-width="1"/><text x="270.0" y="564" font-size="19" font-weight="700" fill="#dfe6ff" text-anchor="middle" letter-spacing="0">이 가격, 제휴 회원만 가능해요</text><rect x="30" y="830" width="480" height="64" rx="12" fill="#FEE500" stroke="none" stroke-width="1"/><text x="270.0" y="870.4" font-size="24" font-weight="700" fill="#14213f" text-anchor="middle" letter-spacing="0">카카오로 계속하기</text><rect x="30" y="910" width="480" height="64" rx="12" fill="#03C75A" stroke="none" stroke-width="1"/><text x="270.0" y="950.4" font-size="24" font-weight="700" fill="#fff" text-anchor="middle" letter-spacing="0">네이버로 계속하기</text><rect x="30" y="990" width="480" height="64" rx="12" fill="#ffffff" stroke="none" stroke-width="1"/><text x="270.0" y="1030.4" font-size="24" font-weight="700" fill="#14213f" text-anchor="middle" letter-spacing="0">구글로 계속하기</text><rect x="30" y="990" width="480" height="64" rx="12" fill="none" stroke="#dfe3ea" stroke-width="2"/><rect x="210" y="980" width="120" height="26" rx="13" fill="#20264a" stroke="none" stroke-width="1"/><text x="270" y="998" font-size="15" font-weight="700" fill="#fff" text-anchor="middle" letter-spacing="0">최근 사용</text></svg>