<svg xmlns="http://www.w3.org/2000/svg" viewBox="0 0 540 1080" width="540" height="1080" font-family="'Apple SD Gothic Neo','Malgun Gothic','Noto Sans KR',sans-serif">
<rect width="540" height="1080" fill="#ffffff"/><text x="30" y="40" font-size="20" font-weight="700" fill="#14213f" font-family="'Apple SD Gothic Neo','Malgun Gothic','Noto Sans KR',sans-serif">9:41</text><g fill="#14213f"><rect x="452" y="27" width="22" height="13" rx="3"/><circle cx="492" cy="34" r="7"/><rect x="418" y="27" width="24" height="13" rx="2" opacity="0.5"/></g><path d="M40 70 L30 79 L40 88" fill="none" stroke="#14213f" stroke-width="3" stroke-linecap="round" stroke-linejoin="round"/><text x="30" y="170" font-size="29" font-weight="800" fill="#14213f" text-anchor="start" letter-spacing="0">인증 방법을 선택해주세요</text><rect x="30" y="230" width="480" height="90" rx="16" fill="#eef3ff" stroke="#1B59FA" stroke-width="2.5"/><text x="60" y="272" font-size="23" font-weight="800" fill="#14213f" text-anchor="start" letter-spacing="0">문자(SMS) 인증</text><text x="60" y="300" font-size="18" font-weight="400" fill="#8a93a6" text-anchor="start" letter-spacing="0">입력한 번호로 인증번호 발송</text><circle cx="470" cy="275" r="15" fill="none" stroke="#1B59FA" stroke-width="2.5"/><circle cx="470" cy="275" r="8" fill="#1B59FA"/><rect x="30" y="340" width="480" height="90" rx="16" fill="#ffffff" stroke="#e6eaf1" stroke-width="2"/><text x="60" y="382" font-size="23" font-weight="800" fill="#14213f" text-anchor="start" letter-spacing="0">QR 인증</text><text x="60" y="410" font-size="18" font-weight="400" fill="#8a93a6" text-anchor="start" letter-spacing="0">PASS 앱 QR 스캔</text><circle cx="470" cy="385" r="15" fill="none" stroke="#c7cede" stroke-width="2.5"/><rect x="30" y="450" width="480" height="90" rx="16" fill="#ffffff" stroke="#e6eaf1" stroke-width="2"/><text x="60" y="492" font-size="23" font-weight="800" fill="#14213f" text-anchor="start" letter-spacing="0">앱 인증</text><text x="60" y="520" font-size="18" font-weight="400" fill="#8a93a6" text-anchor="start" letter-spacing="0">PASS 앱으로 바로 인증</text><circle cx="470" cy="495" r="15" fill="none" stroke="#c7cede" stroke-width="2.5"/><rect x="30" y="940" width="480" height="64" rx="12" fill="#1B59FA" stroke="none" stroke-width="1"/><text x="270.0" y="980.4" font-size="24" font-weight="700" fill="#fff" text-anchor="middle" letter-spacing="0">다음</text></svg>